<svg width="41" height="46" viewBox="0 0 41 46" fill="none" xmlns="http://www.w3.org/2000/svg">
<path d="M23.4919 2.14218L23.0065 3.01644L23.4919 2.14217C22.6578 1.67905 21.6617 1.14913 20.4515 1.02663C19.2047 0.900431 17.8565 1.2128 16.2841 2.1598C13.4175 3.88622 6.38458 8.43869 3.1803 10.5289C3.16817 10.5349 3.15507 10.5416 3.14104 10.5488C3.07367 10.5835 2.9843 10.6327 2.8803 10.6976C2.67377 10.8266 2.40079 11.023 2.12643 11.2989C1.56967 11.8587 1 12.7585 1 14.0385V30.0924L0.999998 30.1154C0.999867 31.2663 0.999553 34.0118 3.87117 35.7413C5.77916 36.8904 13.8935 41.8093 17.7137 44.1261C18.9522 44.8772 20.0337 45.0893 21.0429 44.9681C21.8588 44.8702 22.5873 44.5484 23.1558 44.2973C23.2414 44.2595 23.3235 44.2233 23.4016 44.1896C23.8104 44.0138 24.6438 43.5366 25.6496 42.9361C26.6849 42.3178 27.9771 41.5233 29.3478 40.6694C32.0901 38.961 35.1616 37.0055 37.1534 35.726C38.9074 34.5992 40 32.4971 40 30.0924V15.9554C40 15.9372 40 15.9186 40 15.8996C40.0007 14.6305 40.0023 11.558 37.1288 9.82734C35.1998 8.66555 27.2215 4.21315 23.4919 2.14218Z" stroke="#00C6BD" stroke-width="2"/>
<circle cx="30.6177" cy="38.6177" r="5.61772" fill="#910606" stroke="#00C6BD" stroke-width="2"/>
</svg>
