<svg width="1020" height="1053" viewBox="0 0 1020 1053" fill="none" xmlns="http://www.w3.org/2000/svg">
<path d="M724.67 208.114C730.271 201.275 736.822 199.87 744.717 200.009C769.514 200.447 794.324 200.17 819.46 200.17C819.46 361.867 819.46 522.543 819.46 684.763C806.594 678.981 794.533 673.709 782.6 668.16C766.733 660.782 751.175 652.695 735.072 645.89C726.672 642.34 724.195 637.375 724.226 628.517C724.486 555.145 724.265 481.772 724.199 408.399C724.18 387.008 724.196 365.616 724.196 341.279C713.825 351.063 705.209 358.888 696.926 367.052C577.001 485.251 457.108 603.483 337.247 721.749C324.516 734.31 311.691 746.812 299.664 760.03C296.148 763.894 293.558 770.095 293.427 775.297C292.794 800.545 293.142 825.817 293.142 852.014C261.917 852.014 231.315 852.014 200 852.014C200 635.038 200 418.254 200 200.054C225.852 200.054 251.692 199.954 277.528 200.219C279.935 200.244 282.816 202.085 284.642 203.916C346.794 266.235 408.845 328.653 470.897 391.071C471.604 391.782 472.124 392.678 474.171 395.407C450.18 417.553 426.051 439.825 400.475 463.434C366.321 428.887 330.258 392.409 293.156 354.88C293.156 448.436 293.156 540.092 293.156 633.572C437.644 491.099 580.871 349.869 724.67 208.114Z" fill="white"/>
<path d="M560.312 564.267C579.037 545.735 597.052 527.539 615.55 509.85C618.371 507.152 623.359 505.879 627.472 505.555C635.746 504.904 644.106 505.362 652.358 505.362C652.358 539.122 652.616 572.029 652.199 604.929C652.076 614.607 654.425 621.648 661.764 628.817C711.923 677.814 761.401 727.51 811.318 776.758C817.515 782.873 820.309 789.154 819.973 798.003C819.297 815.797 819.772 833.635 819.772 852.946C792.57 852.946 766.337 853.186 740.12 852.656C736.656 852.586 732.726 849.127 729.932 846.321C678.218 794.377 626.645 742.294 575.038 690.243C574.082 689.28 573.077 688.364 569.586 685.028C548.158 707.401 527.171 729.986 505.446 751.836C473.551 783.914 441.164 815.503 408.856 847.166C406.557 849.419 403.211 851.951 400.302 852.014C380.71 852.442 361.105 852.237 340.077 852.237C340.077 829.504 339.945 807.21 340.282 784.924C340.316 782.71 342.931 780.26 344.813 778.388C416.428 707.147 488.097 635.961 560.312 564.267Z" fill="white"/>
</svg>
